<svg xmlns="http://www.w3.org/2000/svg" viewBox="0 0 1000 700" font-family="'Segoe UI', 'Helvetica Neue', Arial, sans-serif">
  <defs>
    <linearGradient id="bg" x1="0" y1="0" x2="0" y2="1"><stop offset="0%" stop-color="#0a0a14"/><stop offset="100%" stop-color="#06060c"/></linearGradient>
    <filter id="glow"><feGaussianBlur stdDeviation="2" result="blur"/><feMerge><feMergeNode in="blur"/><feMergeNode in="SourceGraphic"/></feMerge></filter>
  </defs>
  <rect width="1000" height="700" fill="url(#bg)"/>

  <text x="500" y="42" text-anchor="middle" fill="#ffffff" font-size="20" font-weight="700" letter-spacing="2">PERSONALISED GAME ASSEMBLY</text>
  <text x="500" y="64" text-anchor="middle" fill="#40f080" font-size="11" letter-spacing="4" opacity="0.7">PSYCHOMETRIC PROFILE → CONTENT SELECTION → PER-PLAYER BUILD — CHAPTER 4</text>
  <line x1="200" y1="78" x2="800" y2="78" stroke="#40f080" stroke-width="0.5" opacity="0.3"/>

  <!-- STAGE 1: Assessment -->
  <rect x="40" y="110" width="200" height="280" rx="10" fill="#c080ff" fill-opacity="0.06" stroke="#c080ff" stroke-width="1.2"/>
  <rect x="40" y="110" width="200" height="36" rx="10" fill="#c080ff" fill-opacity="0.15"/>
  <text x="140" y="134" text-anchor="middle" fill="#c080ff" font-size="13" font-weight="700">1. ASSESSMENT</text>
  <text x="140" y="160" text-anchor="middle" fill="#d0d4dc" font-size="10">2D Onboarding</text>

  <rect x="56" y="176" width="168" height="34" rx="4" fill="#c080ff" fill-opacity="0.06" stroke="#c080ff" stroke-width="0.4"/>
  <text x="140" y="198" text-anchor="middle" fill="#a0a8b8" font-size="9">Gameplay choices</text>

  <rect x="56" y="218" width="168" height="34" rx="4" fill="#c080ff" fill-opacity="0.06" stroke="#c080ff" stroke-width="0.4"/>
  <text x="140" y="240" text-anchor="middle" fill="#a0a8b8" font-size="9">Puzzle-solving patterns</text>

  <rect x="56" y="260" width="168" height="34" rx="4" fill="#c080ff" fill-opacity="0.06" stroke="#c080ff" stroke-width="0.4"/>
  <text x="140" y="282" text-anchor="middle" fill="#a0a8b8" font-size="9">Dialogue responses</text>

  <rect x="56" y="302" width="168" height="34" rx="4" fill="#c080ff" fill-opacity="0.06" stroke="#c080ff" stroke-width="0.4"/>
  <text x="140" y="324" text-anchor="middle" fill="#a0a8b8" font-size="9">NKQ scoring</text>

  <text x="140" y="370" text-anchor="middle" fill="#c080ff" font-size="10" font-weight="600">→ 16 PERSONALITY</text>
  <text x="140" y="384" text-anchor="middle" fill="#c080ff" font-size="10" font-weight="600">ARCHETYPES</text>

  <!-- Arrow 1→2 -->
  <line x1="245" y1="250" x2="285" y2="250" stroke="#ffffff" stroke-width="1.5" opacity="0.3"/>
  <polygon points="282,246 292,250 282,254" fill="#ffffff" opacity="0.4"/>

  <!-- STAGE 2: Content Selection -->
  <rect x="290" y="110" width="200" height="280" rx="10" fill="#f0c040" fill-opacity="0.06" stroke="#f0c040" stroke-width="1.2"/>
  <rect x="290" y="110" width="200" height="36" rx="10" fill="#f0c040" fill-opacity="0.15"/>
  <text x="390" y="134" text-anchor="middle" fill="#f0c040" font-size="13" font-weight="700">2. SELECTION</text>
  <text x="390" y="160" text-anchor="middle" fill="#d0d4dc" font-size="10">Cloud Master Database</text>

  <rect x="306" y="176" width="168" height="30" rx="4" fill="#40f080" fill-opacity="0.06" stroke="#40f080" stroke-width="0.4"/>
  <text x="390" y="196" text-anchor="middle" fill="#40f080" font-size="9">🎤 Voice assets (per type)</text>

  <rect x="306" y="212" width="168" height="30" rx="4" fill="#00f0ff" fill-opacity="0.06" stroke="#00f0ff" stroke-width="0.4"/>
  <text x="390" y="232" text-anchor="middle" fill="#00f0ff" font-size="9">💬 Dialogue trees (branched)</text>

  <rect x="306" y="248" width="168" height="30" rx="4" fill="#ff6080" fill-opacity="0.06" stroke="#ff6080" stroke-width="0.4"/>
  <text x="390" y="268" text-anchor="middle" fill="#ff6080" font-size="9">🗺 Quest content (matched)</text>

  <rect x="306" y="284" width="168" height="30" rx="4" fill="#f0c040" fill-opacity="0.06" stroke="#f0c040" stroke-width="0.4"/>
  <text x="390" y="304" text-anchor="middle" fill="#f0c040" font-size="9">🎨 Visual themes (adapted)</text>

  <rect x="306" y="320" width="168" height="30" rx="4" fill="#c080ff" fill-opacity="0.06" stroke="#c080ff" stroke-width="0.4"/>
  <text x="390" y="340" text-anchor="middle" fill="#c080ff" font-size="9">🎵 Audio themes (matched)</text>

  <text x="390" y="374" text-anchor="middle" fill="#f0c040" font-size="10" font-weight="600">ONLY RELEVANT</text>
  <text x="390" y="388" text-anchor="middle" fill="#f0c040" font-size="10" font-weight="600">ASSETS SELECTED</text>

  <!-- Arrow 2→3 -->
  <line x1="495" y1="250" x2="535" y2="250" stroke="#ffffff" stroke-width="1.5" opacity="0.3"/>
  <polygon points="532,246 542,250 532,254" fill="#ffffff" opacity="0.4"/>

  <!-- STAGE 3: Assembly -->
  <rect x="540" y="110" width="200" height="280" rx="10" fill="#00f0ff" fill-opacity="0.06" stroke="#00f0ff" stroke-width="1.2"/>
  <rect x="540" y="110" width="200" height="36" rx="10" fill="#00f0ff" fill-opacity="0.15"/>
  <text x="640" y="134" text-anchor="middle" fill="#00f0ff" font-size="13" font-weight="700">3. ASSEMBLY</text>
  <text x="640" y="160" text-anchor="middle" fill="#d0d4dc" font-size="10">Per-Player Client Build</text>

  <rect x="556" y="176" width="168" height="50" rx="4" fill="#ffffff" fill-opacity="0.03" stroke="#ffffff" stroke-width="0.3"/>
  <text x="640" y="196" text-anchor="middle" fill="#ffffff" font-size="10" font-weight="600">UNIVERSAL CORE</text>
  <text x="640" y="212" text-anchor="middle" fill="#a0a8b8" font-size="8">Engine · Geometry · Textures · Net</text>

  <text x="640" y="242" text-anchor="middle" fill="#00f0ff" font-size="9" font-weight="600">+</text>

  <rect x="556" y="252" width="168" height="50" rx="4" fill="#00f0ff" fill-opacity="0.08" stroke="#00f0ff" stroke-width="0.5"/>
  <text x="640" y="272" text-anchor="middle" fill="#00f0ff" font-size="10" font-weight="600">PERSONALISED LAYER</text>
  <text x="640" y="288" text-anchor="middle" fill="#a0a8b8" font-size="8">Voice · Dialogue · Quests · Visuals</text>

  <text x="640" y="320" text-anchor="middle" fill="#d0d4dc" font-size="9">Progressive streaming</text>
  <text x="640" y="336" text-anchor="middle" fill="#d0d4dc" font-size="9">as player moves through</text>
  <text x="640" y="352" text-anchor="middle" fill="#d0d4dc" font-size="9">the game world</text>

  <text x="640" y="380" text-anchor="middle" fill="#00f0ff" font-size="10" font-weight="600">TAILORED CLIENT</text>

  <!-- Arrow 3→4 -->
  <line x1="745" y1="250" x2="785" y2="250" stroke="#ffffff" stroke-width="1.5" opacity="0.3"/>
  <polygon points="782,246 792,250 782,254" fill="#ffffff" opacity="0.4"/>

  <!-- STAGE 4: Delivery -->
  <rect x="790" y="110" width="170" height="280" rx="10" fill="#40f080" fill-opacity="0.06" stroke="#40f080" stroke-width="1.2"/>
  <rect x="790" y="110" width="170" height="36" rx="10" fill="#40f080" fill-opacity="0.15"/>
  <text x="875" y="134" text-anchor="middle" fill="#40f080" font-size="13" font-weight="700">4. DELIVERY</text>

  <text x="875" y="170" text-anchor="middle" fill="#d0d4dc" font-size="10">Player receives:</text>

  <rect x="806" y="186" width="138" height="24" rx="4" fill="#40f080" fill-opacity="0.08"/>
  <text x="875" y="203" text-anchor="middle" fill="#40f080" font-size="9">Unique game experience</text>

  <rect x="806" y="218" width="138" height="24" rx="4" fill="#40f080" fill-opacity="0.06"/>
  <text x="875" y="235" text-anchor="middle" fill="#a0a8b8" font-size="9">Matched NPC tones</text>

  <rect x="806" y="250" width="138" height="24" rx="4" fill="#40f080" fill-opacity="0.06"/>
  <text x="875" y="267" text-anchor="middle" fill="#a0a8b8" font-size="9">Adapted visual themes</text>

  <rect x="806" y="282" width="138" height="24" rx="4" fill="#40f080" fill-opacity="0.06"/>
  <text x="875" y="299" text-anchor="middle" fill="#a0a8b8" font-size="9">Personality-matched quests</text>

  <rect x="806" y="314" width="138" height="24" rx="4" fill="#40f080" fill-opacity="0.06"/>
  <text x="875" y="331" text-anchor="middle" fill="#a0a8b8" font-size="9">Cognitive-tuned UI density</text>

  <text x="875" y="370" text-anchor="middle" fill="#40f080" font-size="10" font-weight="600">NO TWO PLAYERS</text>
  <text x="875" y="384" text-anchor="middle" fill="#40f080" font-size="10" font-weight="600">PLAY THE SAME GAME</text>

  <!-- Persistence bar -->
  <rect x="40" y="420" width="920" height="60" rx="8" fill="#ffffff" fill-opacity="0.03" stroke="#ffffff" stroke-width="0.5" opacity="0.2"/>
  <text x="500" y="444" text-anchor="middle" fill="#ffffff" font-size="12" font-weight="700" opacity="0.8">IDENTITY PERSISTENCE ACROSS ALL ENGINE PHASES</text>
  <text x="250" y="466" text-anchor="middle" fill="#c080ff" font-size="9">2D Telegram Mini App</text>
  <text x="250" y="476" text-anchor="middle" fill="#a0a8b8" font-size="8">Profile created here</text>
  <text x="420" y="466" text-anchor="middle" fill="#f0c040" font-size="9">EveryWear Browser</text>
  <text x="420" y="476" text-anchor="middle" fill="#a0a8b8" font-size="8">Profile carries forward</text>
  <text x="580" y="466" text-anchor="middle" fill="#00f0ff" font-size="9">2.5D ARG Client</text>
  <text x="580" y="476" text-anchor="middle" fill="#a0a8b8" font-size="8">Profile enriches</text>
  <text x="750" y="466" text-anchor="middle" fill="#40f080" font-size="9">Full 3D Standalone</text>
  <text x="750" y="476" text-anchor="middle" fill="#a0a8b8" font-size="8">Profile matures</text>
  <!-- Connecting arrows -->
  <line x1="320" y1="468" x2="355" y2="468" stroke="#ffffff" stroke-width="0.5" opacity="0.3"/>
  <polygon points="353,465 360,468 353,471" fill="#ffffff" opacity="0.3"/>
  <line x1="490" y1="468" x2="515" y2="468" stroke="#ffffff" stroke-width="0.5" opacity="0.3"/>
  <polygon points="513,465 520,468 513,471" fill="#ffffff" opacity="0.3"/>
  <line x1="645" y1="468" x2="685" y2="468" stroke="#ffffff" stroke-width="0.5" opacity="0.3"/>
  <polygon points="683,465 690,468 683,471" fill="#ffffff" opacity="0.3"/>

  <!-- Archetype examples -->
  <rect x="40" y="505" width="920" height="120" rx="8" fill="#ffffff" fill-opacity="0.02" stroke="#ffffff" stroke-width="0.5" opacity="0.15"/>
  <text x="500" y="528" text-anchor="middle" fill="#ffffff" font-size="11" font-weight="700" opacity="0.7">ARCHETYPE EXAMPLES — SAME WORLD, DIFFERENT EXPERIENCE</text>

  <!-- Analytical player -->
  <rect x="60" y="540" width="200" height="70" rx="4" fill="#00f0ff" fill-opacity="0.04" stroke="#00f0ff" stroke-width="0.3"/>
  <text x="160" y="558" text-anchor="middle" fill="#00f0ff" font-size="10" font-weight="600">ANALYTICAL (COG)</text>
  <text x="160" y="575" text-anchor="middle" fill="#a0a8b8" font-size="8">Systematic dialogue structure</text>
  <text x="160" y="588" text-anchor="middle" fill="#a0a8b8" font-size="8">Data-rich UI, cool colour temp</text>
  <text x="160" y="601" text-anchor="middle" fill="#a0a8b8" font-size="8">Logic puzzles foregrounded</text>

  <!-- Expressive player -->
  <rect x="280" y="540" width="200" height="70" rx="4" fill="#ff6080" fill-opacity="0.04" stroke="#ff6080" stroke-width="0.3"/>
  <text x="380" y="558" text-anchor="middle" fill="#ff6080" font-size="10" font-weight="600">EXPRESSIVE (WEAVER)</text>
  <text x="380" y="575" text-anchor="middle" fill="#a0a8b8" font-size="8">Narrative-rich dialogue</text>
  <text x="380" y="588" text-anchor="middle" fill="#a0a8b8" font-size="8">Warm colour temp, ambient audio</text>
  <text x="380" y="601" text-anchor="middle" fill="#a0a8b8" font-size="8">Creative expression quests</text>

  <!-- Strategic player -->
  <rect x="500" y="540" width="200" height="70" rx="4" fill="#f0c040" fill-opacity="0.04" stroke="#f0c040" stroke-width="0.3"/>
  <text x="600" y="558" text-anchor="middle" fill="#f0c040" font-size="10" font-weight="600">STRATEGIC (STRAND)</text>
  <text x="600" y="575" text-anchor="middle" fill="#a0a8b8" font-size="8">Leadership-framed interactions</text>
  <text x="600" y="588" text-anchor="middle" fill="#a0a8b8" font-size="8">Faction influence dashboards</text>
  <text x="600" y="601" text-anchor="middle" fill="#a0a8b8" font-size="8">Social dynamics foregrounded</text>

  <!-- Stealth player -->
  <rect x="720" y="540" width="200" height="70" rx="4" fill="#c080ff" fill-opacity="0.04" stroke="#c080ff" stroke-width="0.3"/>
  <text x="820" y="558" text-anchor="middle" fill="#c080ff" font-size="10" font-weight="600">COVERT (GHOST)</text>
  <text x="820" y="575" text-anchor="middle" fill="#a0a8b8" font-size="8">Minimalist, sparse dialogue</text>
  <text x="820" y="588" text-anchor="middle" fill="#a0a8b8" font-size="8">Dark UI, low information density</text>
  <text x="820" y="601" text-anchor="middle" fill="#a0a8b8" font-size="8">Infiltration mechanics central</text>

  <!-- Footer -->
  <text x="500" y="650" text-anchor="middle" fill="#ffffff" font-size="10" font-weight="600" opacity="0.6">The core engine is universal. The content layer is assembled per-player.</text>
  <text x="500" y="690" text-anchor="middle" fill="#4a4e5c" font-size="9" letter-spacing="1">STRANDS WHITEPAPER v6 — APPENDIX H — FIG. 35</text>
</svg>